<?xml version="1.0" encoding="UTF-8" standalone="no"?>
<svg
   xmlns:dc="http://purl.org/dc/elements/1.1/"
   xmlns:cc="http://creativecommons.org/ns#"
   xmlns:rdf="http://www.w3.org/1999/02/22-rdf-syntax-ns#"
   xmlns:svg="http://www.w3.org/2000/svg"
   xmlns="http://www.w3.org/2000/svg"
   xmlns:sodipodi="http://sodipodi.sourceforge.net/DTD/sodipodi-0.dtd"
   xmlns:inkscape="http://www.inkscape.org/namespaces/inkscape"
   id="Layer_1"
   data-name="Layer 1"
   viewBox="0 0 512 512"
   version="1.1"
   sodipodi:docname="banyan-icon.svg"
   inkscape:version="0.92.1 r15371"
   inkscape:export-filename="D:\eclipse-workspaces\git\banyan-parent\banyan-js\src\main\resources\icons-svg\banyan-icon.png"
   inkscape:export-xdpi="28.129999"
   inkscape:export-ydpi="28.129999">
  <metadata
     id="metadata21">
    <rdf:RDF>
      <cc:Work
         rdf:about="">
        <dc:format>image/svg+xml</dc:format>
        <dc:type
           rdf:resource="http://purl.org/dc/dcmitype/StillImage" />
        <dc:title>digg-flat</dc:title>
      </cc:Work>
    </rdf:RDF>
  </metadata>
  <defs
     id="defs19" />
  <sodipodi:namedview
     pagecolor="#ffffff"
     bordercolor="#666666"
     borderopacity="1"
     objecttolerance="10"
     gridtolerance="10"
     guidetolerance="10"
     inkscape:pageopacity="0"
     inkscape:pageshadow="2"
     inkscape:window-width="1920"
     inkscape:window-height="1017"
     id="namedview17"
     showgrid="false"
     inkscape:zoom="0.55255665"
     inkscape:cx="130.6153"
     inkscape:cy="347.29736"
     inkscape:window-x="-8"
     inkscape:window-y="-8"
     inkscape:window-maximized="1"
     inkscape:current-layer="Layer_1" />
  <title
     id="title2">digg-flat</title>
  <path
     d="M 16,1.29 H 260.65 C 401.64,1.29 512,114.91 512,255.89 v 244.67 c 0,5.88 -0.81,10.15 -6.69,10.15 H 260.65 C 119.65,510.71 0,396.91 0,255.9 V 11.23 C 0,5.35 10.13,1.29 16,1.29 Z"
     id="path4"
     style="fill:#329632;fill-opacity:1"
     inkscape:connector-curvature="0" />
  <path
     inkscape:connector-curvature="0"
     d="m 49.93317,37.30299 h 210.05937 c 121.05568,0 215.81208,97.55547 215.81208,218.60256 V 465.9821 c 0,5.04863 -0.69548,8.71491 -5.74412,8.71491 H 259.99254 c -121.06426,0 -223.79716,-97.71002 -223.79716,-218.78287 V 45.83759 c 0,-5.04863 8.69774,-8.5346 13.73779,-8.5346 z"
     id="path4-6"
     style="fill:#ffffff;fill-opacity:1;stroke-width:0.85861176" />
  <g
     aria-label="b"
     transform="matrix(1.0986179,0,0,0.91023457,8,-6)"
     style="font-style:normal;font-variant:normal;font-weight:normal;font-stretch:normal;font-size:535.73834229px;line-height:1.25;font-family:'AR DARLING';-inkscape-font-specification:'AR DARLING';font-variant-ligatures:normal;font-variant-caps:normal;font-variant-numeric:normal;font-feature-settings:normal;text-align:center;writing-mode:lr-tb;text-anchor:middle;opacity:1;vector-effect:none;fill:#329632;fill-opacity:1;fill-rule:nonzero;stroke:none;stroke-width:16;stroke-linecap:round;stroke-linejoin:round;stroke-miterlimit:4;stroke-dasharray:none;stroke-dashoffset:0;stroke-opacity:1;paint-order:markers stroke fill"
     id="text4502">
    <path
       d="m 222.51984,195.2193 c 3.21443,-3.57159 10.3576,-8.21465 21.42953,-13.9292 11.42909,-5.71454 23.39391,-8.57181 35.89447,-8.57181 12.85772,0 25.00112,1.96437 36.43021,5.89312 11.78625,3.92875 23.21533,10.35761 34.28725,19.28658 11.42909,8.57181 20.53664,21.78669 27.32266,39.64464 7.14318,17.85795 10.71477,39.1089 10.71477,63.75286 0,45.00202 -10.17903,79.28927 -30.53709,102.86176 -20.35805,23.57249 -46.43065,35.35873 -78.2178,35.35873 -31.78714,0 -57.50258,-12.85772 -77.14632,-38.57316 -0.35716,-0.71431 -0.71432,-1.25005 -1.07148,-1.60721 l -9.10755,34.82299 H 112.15774 L 97.692806,86.464416 H 219.84115 l -4.28591,117.326694 c 1.42863,-2.14295 3.75017,-5.00022 6.9646,-8.57181 z m 39.95671,49.28793 c -23.57248,0 -35.35873,21.42953 -35.35873,64.2886 0,14.64351 2.67869,27.85839 8.03607,39.64464 5.71454,11.42908 13.75062,17.14362 24.10823,17.14362 10.35761,0 18.2151,-3.92875 23.57248,-11.78624 5.35739,-7.8575 8.57182,-15.35784 9.64329,-22.50101 1.07148,-7.14318 1.60722,-14.64352 1.60722,-22.50101 0,-42.85907 -10.53618,-64.2886 -31.60856,-64.2886 z"
       style="font-style:normal;font-variant:normal;font-weight:normal;font-stretch:normal;font-family:'Wendy One';-inkscape-font-specification:'Wendy One';fill:#329632;fill-opacity:1;stroke:none;stroke-width:16;stroke-linejoin:round;stroke-miterlimit:4;stroke-dasharray:none;stroke-opacity:1;paint-order:markers stroke fill"
       id="path4519"
       inkscape:connector-curvature="0"
       sodipodi:nodetypes="ccscccsssccccccccsscsssss" />
  </g>
</svg>
