<svg id="Layer_1" data-name="Layer 1" xmlns="http://www.w3.org/2000/svg" xmlns:xlink="http://www.w3.org/1999/xlink" viewBox="0 0 512 512"><defs><linearGradient id="linear-gradient" x1="256" y1="512" x2="256" gradientUnits="userSpaceOnUse"><stop offset="0" stop-color="#231f20"/><stop offset="1" stop-color="#58595b"/></linearGradient></defs><title>info</title><path d="M362.49,456.72,355.31,486q-32.22,12.7-51.45,19.35T259.26,512q-39.08,0-60.71-19t-21.66-48.26a169.23,169.23,0,0,1,1.62-23.25c1.09-7.94,2.82-16.86,5.2-26.85l26.88-94.91q3.63-13.65,6.05-25.83a114.69,114.69,0,0,0,2.43-22.28q0-18.19-7.5-25.36t-28.73-7.15a75.2,75.2,0,0,0-21.38,3.25q-11,3.24-18.77,6.18l7.16-29.26q26.41-10.73,50.52-18.37T246,173.27q38.79,0,59.8,18.68t21,48.6q0,6.18-1.45,21.78A149,149,0,0,1,320,291l-26.78,94.58a262.22,262.22,0,0,0-5.87,26q-2.62,14.61-2.61,22.1,0,18.81,8.43,25.66t29.28,6.83a84.78,84.78,0,0,0,22.1-3.4C352.82,460.48,358.78,458.49,362.49,456.72Zm6.81-396.91q0,24.71-18.72,42.1T305.49,119.3q-26.38,0-45.24-17.38t-18.91-42.1q0-24.7,18.91-42.25T305.49,0q26.38,0,45.08,17.56T369.29,59.81Z" fill="url(#linear-gradient)"/></svg>