<svg id="Layer_1" data-name="Layer 1" xmlns="http://www.w3.org/2000/svg" viewBox="0 0 512 512"><title>digg-flat</title><path d="M496,1.29H251.35C110.36,1.29,0,114.91,0,255.89V500.56c0,5.88.81,10.15,6.69,10.15H251.35c141,0,260.65-113.8,260.65-254.81V11.23C512,5.35,501.87,1.29,496,1.29Z" fill="#00b670"/><path d="M173.79,159.45H142.58V204h-48V306h79.22ZM142.58,278.56H126.32V232.21h16.27Z" fill="#fff"/><path d="M318,350.92V204.4H238.8v102h48.06v15.95h-48.6v28.61H318Zm-31.16-72.76H270.57V231.8h16.29Z" fill="#fff"/><path d="M334.5,306.37h48v15.95H333.93v28.61h79.76V204.4H334.5Zm31.77-74.57h16.23v46.36H366.26Z" fill="#fff"/><rect x="189.87" y="203.79" width="32.31" height="102.58" fill="#fff"/><rect x="189.87" y="161.25" width="32.31" height="27.82" fill="#fff"/></svg>